<svg width="193" height="161" viewBox="0 0 193 161" fill="none" xmlns="http://www.w3.org/2000/svg">
<path d="M193 80C193 82.1217 192.157 84.1566 190.657 85.6569C189.157 87.1572 187.122 88 185 88H28.3L86.7 146.3C88.2023 147.817 89.045 149.865 89.045 152C89.045 154.135 88.2023 156.183 86.7 157.7C85.1709 159.179 83.1271 160.005 81 160.005C78.873 160.005 76.8291 159.179 75.3 157.7L3.30002 85.7C1.79777 84.1832 0.955017 82.1348 0.955017 80C0.955017 77.8652 1.79777 75.8168 3.30002 74.3L75.3 2.3C76.8544 1.0243 78.8277 0.372361 80.8361 0.471001C82.8445 0.569642 84.7445 1.41181 86.1663 2.83368C87.5882 4.25556 88.4304 6.15549 88.529 8.16391C88.6277 10.1723 87.9757 12.1456 86.7 13.7L28.3 72H185C187.122 72 189.157 72.8429 190.657 74.3431C192.157 75.8434 193 77.8783 193 80Z" fill="black"/>
</svg>
