<svg width="16" height="20" viewBox="0 0 16 20" fill="none" xmlns="http://www.w3.org/2000/svg">
<path fill-rule="evenodd" clip-rule="evenodd" d="M8.88705e-08 3C8.88705e-08 2.20435 0.316071 1.44129 0.87868 0.87868C1.44129 0.316071 2.20435 0 3 0H13C13.7956 0 14.5587 0.316071 15.1213 0.87868C15.6839 1.44129 16 2.20435 16 3V18.138C16.0001 18.4008 15.9312 18.6589 15.8001 18.8867C15.669 19.1144 15.4805 19.3037 15.2532 19.4357C15.026 19.5676 14.7681 19.6376 14.5053 19.6385C14.2426 19.6394 13.9842 19.5713 13.756 19.441L8.496 16.435C8.34494 16.3487 8.17397 16.3033 8 16.3033C7.82603 16.3033 7.65506 16.3487 7.504 16.435L2.244 19.441C2.01584 19.5713 1.75744 19.6394 1.49468 19.6385C1.23192 19.6376 0.974015 19.5676 0.746783 19.4357C0.51955 19.3037 0.330964 19.1144 0.199905 18.8867C0.0688447 18.6589 -9.03486e-05 18.4008 8.88705e-08 18.138V3ZM11 7C11.2652 7 11.5196 7.10536 11.7071 7.29289C11.8946 7.48043 12 7.73478 12 8C12 8.26522 11.8946 8.51957 11.7071 8.70711C11.5196 8.89464 11.2652 9 11 9H5C4.73478 9 4.48043 8.89464 4.29289 8.70711C4.10536 8.51957 4 8.26522 4 8C4 7.73478 4.10536 7.48043 4.29289 7.29289C4.48043 7.10536 4.73478 7 5 7H11Z" fill="#4C4DDC"/>
</svg>

